<?xml version="1.0" encoding="iso-8859-1"?>
<!-- Generator: Adobe Illustrator 19.0.0, SVG Export Plug-In . SVG Version: 6.00 Build 0)  -->
<svg version="1.1" id="Capa_1" xmlns="http://www.w3.org/2000/svg" xmlns:xlink="http://www.w3.org/1999/xlink" x="0px" y="0px"
	 viewBox="0 0 512 512" style="enable-background:new 0 0 512 512;" xml:space="preserve">
<g>
	<g>
		<path d="M93.542,64.251H59.227C26.569,64.251,0,90.821,0,123.478v28.552c0,4.199,3.405,7.604,7.604,7.604s7.604-3.405,7.604-7.604
			v-28.552c0-24.272,19.747-44.019,44.019-44.019h34.315c4.199,0,7.604-3.405,7.604-7.604S97.741,64.251,93.542,64.251z"/>
	</g>
</g>
<g>
	<g>
		<path d="M452.763,64.251h-37.18c-4.2,0-7.604,3.405-7.604,7.604s3.404,7.604,7.604,7.604h37.18
			c24.278,0,44.029,19.747,44.029,44.019V362.45c0,24.272-19.751,44.019-44.03,44.019H59.227c-24.272,0-44.019-19.747-44.019-44.019
			V179.511c0-4.199-3.405-7.604-7.604-7.604S0,175.312,0,179.511V362.45c0,32.657,26.569,59.227,59.227,59.227h120.728v30.878
			c-24.867,1.612-44.609,22.344-44.609,47.612c0,4.199,3.405,7.604,7.604,7.604h226.101c4.2,0,7.604-3.405,7.604-7.604
			c0-25.268-19.741-46.001-44.609-47.612v-30.878h120.716c32.664,0,59.238-26.569,59.238-59.227V123.478
			C512,90.821,485.427,64.251,452.763,64.251z M195.162,421.677h121.677v30.766h-0.001H195.162V421.677z M360.549,492.563H151.451
			c3.433-14.274,16.307-24.914,31.62-24.914H328.93C344.242,467.651,357.116,478.289,360.549,492.563z"/>
	</g>
</g>
<g>
	<g>
		<path d="M452.763,103.193h-37.18c-4.2,0-7.604,3.405-7.604,7.604s3.404,7.604,7.604,7.604h37.18c2.806,0,5.089,2.282,5.089,5.089
			v238.95c0,2.805-2.282,5.089-5.089,5.089H59.227c-2.799,0-5.077-2.282-5.077-5.089v-238.95c0-2.805,2.278-5.089,5.077-5.089
			h34.315c4.199,0,7.604-3.405,7.604-7.604s-3.405-7.604-7.604-7.604H59.227c-11.185,0-20.285,9.104-20.285,20.297v238.95
			c0,11.191,9.1,20.297,20.285,20.297h393.536c11.191,0,20.297-9.104,20.297-20.297v-238.95
			C473.06,112.298,463.955,103.193,452.763,103.193z"/>
	</g>
</g>
<g>
	<g>
		<path d="M391.646,4.229H356.03c-4.2,0-7.604,3.405-7.604,7.604s3.404,7.604,7.604,7.604h28.012v134.71
			c0,31.525-12.425,64.235-34.986,92.105c-23.398,28.903-56.381,50.358-93.055,60.573c-36.673-10.215-69.657-31.67-93.055-60.573
			c-22.56-27.869-34.985-60.579-34.985-92.105V19.437h200.588c4.2,0,7.604-3.405,7.604-7.604s-3.404-7.604-7.604-7.604H120.355
			c-4.199,0-7.604,3.405-7.604,7.604v142.314c0,34.997,13.627,71.106,38.374,101.674c26.197,32.36,61.785,55.265,102.915,66.233
			c0.642,0.171,1.301,0.256,1.96,0.256s1.317-0.085,1.959-0.256c41.131-10.968,76.719-33.871,102.917-66.233
			c24.745-30.568,38.374-66.677,38.374-101.674V11.833C399.25,7.633,395.846,4.229,391.646,4.229z"/>
	</g>
</g>
<g>
	<g>
		<path d="M285.663,34.645c-1.434-1.49-3.413-2.333-5.481-2.333h-48.363c-2.068,0-4.047,0.843-5.481,2.333
			c-1.434,1.49-2.198,3.501-2.117,5.568l5.496,140.693c0.159,4.081,3.514,7.307,7.598,7.307h37.371c4.084,0,7.439-3.226,7.598-7.307
			l5.496-140.693C287.861,38.146,287.095,36.136,285.663,34.645z M267.372,173.004h-22.745L239.726,47.52h32.549L267.372,173.004z"
			/>
	</g>
</g>
<g>
	<g>
		<path d="M256,205.979c-17.527,0-31.786,14.259-31.786,31.786c0,17.527,14.259,31.786,31.786,31.786s31.786-14.259,31.786-31.786
			C287.786,220.238,273.527,205.979,256,205.979z M256,254.342c-9.141,0-16.578-7.437-16.578-16.578
			c0-9.141,7.437-16.578,16.578-16.578s16.578,7.437,16.578,16.578C272.578,246.906,265.141,254.342,256,254.342z"/>
	</g>
</g>
<g>
</g>
<g>
</g>
<g>
</g>
<g>
</g>
<g>
</g>
<g>
</g>
<g>
</g>
<g>
</g>
<g>
</g>
<g>
</g>
<g>
</g>
<g>
</g>
<g>
</g>
<g>
</g>
<g>
</g>
</svg>
